inDegrees=no
num_controls=7
num_derivatives=13
num_iterations=35
num_multipliers=7
num_parameters=0
num_slacks=7
num_states=26
objective=0.522023
objective_accelerations=0.000652
objective_balance=0.010030
objective_effort=0.014115
objective_height=0.468846
objective_ligament=0.028381
solver_duration=485.985281
status=Solve_Succeeded
success=true
DataType=double
version=3
OpenSimVersion=4.5
endheader
time	/jointset/ground_pelvis/pelvis_tilt/value	/jointset/ground_pelvis/pelvis_tx/value	/jointset/ground_pelvis/pelvis_ty/value	/jointset/hip_l/hip_flexion_l/value	/jointset/hip_l/hip_adduction_l/value	/jointset/hip_l/hip_rotation_l/value	/jointset/back/lumbar_extension/value	/jointset/patellofemoral_l/patellar_flexion_l/value	/jointset/knee_l/knee_flexion_l/value	/jointset/knee_l/knee_adduction_l/value	/jointset/knee_l/knee_rotation_l/value	/jointset/ankle_l/ankle_angle_l/value	/jointset/subtalar_l/subtalar_angle_l/value	/jointset/ground_pelvis/pelvis_tilt/speed	/jointset/ground_pelvis/pelvis_tx/speed	/jointset/ground_pelvis/pelvis_ty/speed	/jointset/hip_l/hip_flexion_l/speed	/jointset/hip_l/hip_adduction_l/speed	/jointset/hip_l/hip_rotation_l/speed	/jointset/back/lumbar_extension/speed	/jointset/patellofemoral_l/patellar_flexion_l/speed	/jointset/knee_l/knee_flexion_l/speed	/jointset/knee_l/knee_adduction_l/speed	/jointset/knee_l/knee_rotation_l/speed	/jointset/ankle_l/ankle_angle_l/speed	/jointset/subtalar_l/subtalar_angle_l/speed	/forceset/tau_hip_flexion_l	/forceset/tau_hip_adduction_l	/forceset/tau_hip_rotation_l	/forceset/tau_knee_flexion_l	/forceset/tau_ankle_angle_l	/forceset/tau_subtalar_angle_l	/forceset/tau_lumbar_extension	lambda_cid13_p0	lambda_cid13_p1	lambda_cid13_p2	lambda_cid13_p3	lambda_cid13_p4	lambda_cid13_p5	lambda_cid14_p0	/jointset/ground_pelvis/pelvis_tilt/accel	/jointset/ground_pelvis/pelvis_tx/accel	/jointset/ground_pelvis/pelvis_ty/accel	/jointset/hip_l/hip_flexion_l/accel	/jointset/hip_l/hip_adduction_l/accel	/jointset/hip_l/hip_rotation_l/accel	/jointset/back/lumbar_extension/accel	/jointset/patellofemoral_l/patellar_flexion_l/accel	/jointset/knee_l/knee_flexion_l/accel	/jointset/knee_l/knee_adduction_l/accel	/jointset/knee_l/knee_rotation_l/accel	/jointset/ankle_l/ankle_angle_l/accel	/jointset/subtalar_l/subtalar_angle_l/accel	gamma_cid13_p0	gamma_cid13_p1	gamma_cid13_p2	gamma_cid13_p3	gamma_cid13_p4	gamma_cid13_p5	gamma_cid14_p0
1.5	-0.1303006836904198	0.03753120785812229	0.9023299851931398	0.3984635082430445	-0.1520001621743831	-0.07960106283892311	-0.05710610892322478	0.04367813623094362	0.04367813623094988	0.05414167802655508	-0.02892798744142099	-0.03880624850839466	0.09530161084300574	0.01710068986974739	-0.006936538343485027	0.0005850100297407102	-0.008685459162229514	0.0006632991955152152	0.006561535198133462	0.01995525327083179	0.002289437264606288	0.002289437264606693	0.001708665996152404	-0.005780315339341693	-0.006729184548846467	-0.001471761896084197	0.01682064844820317	0.05872314371896491	0.01349230579941968	-0.1796874245714186	0.2132754656622999	-0.05313922629016579	0.02792158990279875	23.37127602619618	23.90266876552452	-9.828919608377518	1.905376883686999	-629.6994045449972	-13.29668089719987	-34.55561743148688	0.03166490384066496	-0.01538208855681897	0.001287329833404636	-0.02054013762295944	-0.0003385602096742231	0.001458919951843966	0.05955972079079207	-0.01000523219399049	-0.01000523219399046	-0.001897352311516851	-0.001511693171891151	-0.02239533377937207	-0.007160477872695374	-5.800519303966535e-11	1.076264382699986e-11	1.616259259871974e-12	3.977698077820516e-11	1.053364489495526e-11	-3.898748839180371e-11	-1.79693712067882e-11
1.51	-0.1301281188830717	0.03746107699919836	0.9023358970607506	0.3983756559892088	-0.1519935494987791	-0.07953537794984991	-0.0569036231365787	0.04370054192621275	0.04370054192622051	0.05415866407163043	-0.02898586054411843	-0.03887465213511898	0.09528653428950254	0.0174100015918564	-0.007089219563421756	0.0005971750651754533	-0.008882820869299632	0.0006590776186060508	0.006574691940108355	0.02053749270321135	0.002192076535213183	0.00219207653521352	0.001688231876602467	-0.005793491250736902	-0.006950998256422686	-0.001543530415214288	0.01709641937176638	0.05865936911056951	0.01353453614794546	-0.1800975598313	0.2137892914122549	-0.05312647479579036	0.02771352719284768	23.53557066989707	23.8943988679531	-9.857339253346471	1.845737699884363	-629.6966046080096	-13.3204181028594	-34.55573515494596	0.03022380483729998	-0.01514906753836829	0.001152848408857382	-0.01900857389714949	-0.0004876953847089571	0.001131451496586735	0.05689435079916442	-0.009545284381153936	-0.009545284381160828	-0.0021631130431958	-0.001098446606644246	-0.02199299535590038	-0.007182289349839617	2.186525940527268e-11	4.441450734647121e-11	-1.190235562571172e-11	-2.392288362235315e-11	7.636438414439883e-11	7.318420613773595e-11	2.867344357324809e-12
1.52	-0.1299525290588219	0.03738943174230939	0.902341924930318	0.3982858952409611	-0.151986983786735	-0.07946958401332142	-0.05669544729634408	0.04372198525597579	0.04372198525598362	0.05417543644125895	-0.02904384098721552	-0.03894525762014046	0.09527074060072481	0.0177056932516376	-0.007239417936495242	0.0006082104210461132	-0.00906715804229708	0.0006539064835708306	0.006583344689133107	0.02109326398911676	0.00209696416305149	0.002096964163051762	0.001665930906391984	-0.005801783421466237	-0.007169556208361678	-0.001615188951010993	0.01737219029527811	0.05859559450216822	0.01357676649653822	-0.1805076950911964	0.2143031171622053	-0.05311372330142324	0.02750546448285642	23.69972825383014	23.88610245468387	-9.885696971590129	1.787374877344324	-629.695310400833	-13.34449935654854	-34.55582205238991	0.02894089137479321	-0.01488551918387246	0.001061393920602759	-0.01793523080851065	-0.0005284718349311759	0.0005581213618139364	0.05426609149581012	-0.009555560747786709	-0.009555560747786724	-0.002270722443713978	-0.0005349450387467387	-0.02174418265160368	-0.007138481205966196	4.643903316346675e-11	3.538839067188817e-11	-1.041444364815579e-11	-4.347484589696049e-11	7.912255894266993e-11	6.863716111407047e-11	1.016179668277004e-11
1.53	-0.1297740525934697	0.03731629891281208	0.9023480576043063	0.3981943557497135	-0.1519804745340122	-0.07940372804513901	-0.05648184941679961	0.04374248799217613	0.04374248799218573	0.05419197634613334	-0.02910187825072101	-0.03901803023069125	0.09525423156797209	0.01798705776524441	-0.007386543064868631	0.0006181368342879023	-0.009238512076590271	0.0006477939523725676	0.00658702652741426	0.02162158897925004	0.002003960446344005	0.002003960446344317	0.001641756237996885	-0.005804802823609574	-0.007384190504999146	-0.001686519317910985	0.01766999987145332	0.05852777744825049	0.01362199865423609	-0.1809545161027105	0.2148698079300043	-0.05310334071909205	0.02728146824819101	23.88084227793061	23.87813485284931	-9.916698789672077	1.717206571833302	-629.6933869166777	-13.36826942545469	-34.55587944126121	0.02735292204056719	-0.01453527437612758	0.0009301298140425726	-0.01640127101794699	-0.0006751724241435594	0.000149850849009005	0.05140726129336903	-0.009116171855055383	-0.009116171855052781	-0.002534910637702699	-5.547065670704785e-05	-0.02120674476459529	-0.0071155662936282	1.226008581699602e-11	-1.898307995887716e-11	7.017903121485803e-12	-1.611966216274542e-11	1.486613401157096e-11	-5.992354468487408e-11	3.06759431713092e-12
